<svg width="214" height="42" viewBox="0 0 214 42" fill="none" xmlns="http://www.w3.org/2000/svg">
<g clip-path="url(#clip0)">
<path d="M56.5522 5.88248V15.5138H54.0423V5.88248H49.735V3.50513H60.9215V5.88248H56.5522Z" fill="#4861A1"/>
<path d="M70.8995 11.0943C70.8995 12.7097 70.5277 13.1059 68.9473 13.1059H65.6627C64.1443 13.1059 63.7104 12.6792 63.7104 11.0943V7.89402C63.7104 6.1872 64.1443 5.73002 65.6936 5.73002H68.8854C70.3728 5.73002 70.8686 6.12625 70.8686 7.86355V11.0943H70.8995ZM73.3785 11.3991V7.61971C73.3785 4.23655 72.201 3.35266 69.6291 3.35266H65.0739C62.254 3.35266 61.2314 4.32799 61.2314 7.61971V11.3991C61.2314 14.2946 62.285 15.5138 65.0739 15.5138H69.6291C72.5109 15.5138 73.3785 14.386 73.3785 11.3991Z" fill="#4861A1"/>
<path d="M83.4495 15.5138V5.88245H77.6239V11.1553C77.6239 14.2337 76.5393 15.5138 74.68 15.5138H73.6265V13.106C74.897 13.106 75.1449 12.5573 75.1449 10.7896V3.47461H85.9285V15.4833H83.4495V15.5138Z" fill="#4861A1"/>
<path d="M95.0388 11.704C95.0388 12.7707 94.8529 13.106 93.5204 13.106H89.2441V10.3629H93.6134C94.9149 10.3629 95.0388 10.7896 95.0388 11.704ZM97.5178 11.7344C97.5178 8.65607 96.2163 7.95505 93.7683 7.95505H89.2441V3.50513H86.7651V15.5138H93.8303C96.3093 15.5138 97.5178 14.7823 97.5178 11.7344Z" fill="#4861A1"/>
<path d="M107.558 9.41804H102.445C101.391 9.41804 100.957 8.86942 100.957 7.58931C100.957 6.33967 101.267 5.76057 102.383 5.76057H107.558V9.41804ZM110.037 15.5138V3.50513H102.166C99.9968 3.50513 98.4784 4.32806 98.4784 7.71122C98.4784 9.53996 99.594 11.0029 100.772 11.3077L97.7347 15.4834H100.957L103.436 11.6735H107.558V15.4834H110.037V15.5138Z" fill="#4861A1"/>
<path d="M117.722 5.88248V15.5138H115.243V5.88248H110.904V3.50513H122.122V5.88248H117.722Z" fill="#4861A1"/>
<path d="M128.939 5.88248V15.5138H126.46V5.88248H122.122V3.50513H133.339V5.88248H128.939Z" fill="#4861A1"/>
<path d="M144.185 15.5138V5.88248H143.844L137.585 15.5138H133.339V3.50513H135.818V13.106H136.159L142.481 3.50513H146.664V15.5138H144.185Z" fill="#4861A1"/>
<path d="M156.549 15.5138V10.4848H150.135V15.5138H147.656V3.50513H150.135V8.10745H156.549V3.50513H159.028V15.5138H156.549Z" fill="#4861A1"/>
<path d="M168.169 15.5138H163.552C160.67 15.5138 159.772 14.508 159.772 11.2772V7.86355C159.772 4.35847 160.732 3.35266 163.8 3.35266H167.922C170.37 3.35266 171.919 4.17559 171.919 7.52828H169.44C169.44 6.27864 168.882 5.73002 167.457 5.73002H164.265C162.592 5.73002 162.251 6.06529 162.251 7.95498V10.9419C162.251 12.7707 162.84 13.1059 164.265 13.1059H167.457C168.944 13.1059 169.44 12.8011 169.44 11.3381H171.95C171.919 14.5384 171.237 15.5138 168.169 15.5138Z" fill="#4861A1"/>
<path d="M181.618 15.5138L176.815 10.3629H175.297V15.5138H172.818V3.50513H175.297V7.98553H176.753L181.277 3.50513H185.027L178.891 9.11325L185.244 15.5138H181.618Z" fill="#4861A1"/>
<path d="M196.554 15.5138V5.88248H196.213L189.985 15.5138H185.708V3.50513H188.187V13.106H188.528L194.881 3.50513H199.033V15.5138H196.554Z" fill="#4861A1"/>
<path d="M211.056 15.5138V5.88244H210.715L204.487 15.5138H200.242V3.50508H202.721V13.106H203.061L209.383 3.4746H213.566V15.4833H211.056V15.5138ZM206.47 2.62119C203.464 2.62119 202.907 1.92017 202.907 0.152395V0H204.921C204.921 1.09724 205.138 1.21916 206.47 1.21916C207.741 1.21916 208.019 1.12772 208.019 0H210.034C210.034 1.67634 209.724 2.62119 206.47 2.62119Z" fill="#4861A1"/>
<path d="M58.7525 36.6052C57.0482 39.6531 56.3664 39.9884 54.1973 39.9884H53.0198V37.3977H53.6086C54.91 37.3977 55.3439 37.0319 55.3439 36.5748C55.3439 36.3919 55.2819 36.1785 55.1269 35.9347L49.3323 26.3033H52.8649L57.0482 34.0145L61.0456 26.3033H64.6091L58.7525 36.6052Z" fill="#4861A1"/>
<path d="M75.8266 39.9884V34.2584H68.1107V39.9884H65.1049V26.3033H68.1107V31.5457H75.8266V26.3033H78.8324V39.9884H75.8266Z" fill="#4861A1"/>
<path d="M93.1176 39.9884V29.016H92.6838L85.1538 39.9884H80.0099V26.3033H83.0157V37.2758H83.4495L91.0724 26.3033H96.0924V39.9884H93.1176Z" fill="#4861A1"/>
<path d="M107.806 30.2352C107.806 31.1496 107.403 31.8201 106.566 31.8201H100.462V28.8637H106.566C107.372 28.8637 107.806 29.4123 107.806 30.2352ZM111.276 35.9653C111.276 33.8012 110.471 33.2221 109.231 32.765C110.254 32.3992 110.78 31.942 110.78 29.7171C110.78 27.1873 109.262 26.2729 106.473 26.2729H97.4558V39.958H107.093C109.944 39.9885 111.276 38.8912 111.276 35.9653L108.27 35.8129C108.27 37.0015 108.054 37.3978 106.442 37.3978H100.431V34.2584H106.535C108.085 34.2584 108.239 34.7461 108.239 35.7824L111.276 35.9653Z" fill="#4861A1"/>
<path d="M112.671 39.9884V26.3033H125.469V28.8636H115.677V31.881H125.159V34.2584H115.677V37.3977H125.469V39.9884H112.671Z" fill="#4861A1"/>
<path d="M136.562 31.0885C136.562 32.582 136.128 33.2221 134.61 33.2221H129.621V29.016H134.61C136.159 29.016 136.562 29.7475 136.562 31.0885ZM139.537 31.0885C139.537 27.6444 138.297 26.3033 135.137 26.3033H126.615V39.9884H129.621V35.9347H135.199C138.266 35.9347 139.537 34.5631 139.537 31.0885Z" fill="#4861A1"/>
<path d="M150.166 39.9884H144.588C141.117 39.9884 140.033 38.8302 140.033 35.1727V31.3019C140.033 27.3091 141.21 26.1814 144.898 26.1814H149.887C152.862 26.1814 154.721 27.0958 154.721 30.9666H151.715C151.715 29.5341 151.033 28.9245 149.329 28.9245H145.487C143.472 28.9245 143.069 29.2902 143.069 31.4543V34.8374C143.069 36.9405 143.782 37.3367 145.487 37.3367H149.329C151.126 37.3367 151.715 36.9709 151.715 35.3251H154.721C154.69 38.8911 153.884 39.9884 150.166 39.9884Z" fill="#4861A1"/>
<path d="M168.913 39.9884V29.016H168.51L160.98 39.9884H155.836V26.3033H158.842V37.2758H159.245L166.899 26.3033H171.919V39.9884H168.913Z" fill="#4861A1"/>
<path d="M181.029 29.016V39.9884H178.024V29.016H172.818V26.3033H186.328V29.016H181.029Z" fill="#4861A1"/>
<path d="M186.917 39.9884V26.3033H199.715V28.8636H189.923V31.881H199.405V34.2584H189.923V37.3977H199.715V39.9884H186.917Z" fill="#4861A1"/>
<path d="M208.732 29.016V39.9884H205.726V29.016H200.489V26.3033H214V29.016H208.732Z" fill="#4861A1"/>
<path d="M51.5014 22.5849H50.5408V18.5922H53.2677V19.3846H51.5014V22.5849Z" fill="#4861A1"/>
<path d="M62.8428 21.9449C62.316 21.9449 61.8202 21.6401 61.8202 20.6038C61.8202 19.6894 62.1921 19.2627 62.8428 19.2627C63.8344 19.2627 63.8654 20.238 63.8654 20.6038C63.8654 20.939 63.8344 21.9449 62.8428 21.9449ZM62.8428 22.7068C64.2372 22.7068 64.888 21.7925 64.888 20.6038C64.888 19.3846 64.2372 18.5007 62.8428 18.5007C61.2314 18.5007 60.7976 19.6894 60.7976 20.6038C60.7976 21.5182 61.2624 22.7068 62.8428 22.7068Z" fill="#4861A1"/>
<path d="M76.4772 21.1828C76.4153 21.7924 76.0744 22.7068 74.618 22.7068C73.5954 22.7068 72.6348 22.2496 72.6348 20.6647C72.6348 18.5617 74.2151 18.4702 74.587 18.4702C76.0124 18.4702 76.3843 19.3541 76.4153 19.9332H75.4856C75.3927 19.2627 74.8659 19.2322 74.649 19.2322C74.432 19.2322 73.6883 19.2627 73.6883 20.6037C73.6883 21.3657 74.0292 21.8839 74.68 21.8839C75.2997 21.8839 75.4856 21.4267 75.5476 21.1219H76.4772V21.1828Z" fill="#4861A1"/>
<path d="M86.6102 18.5922H87.6638L86.3313 21.762C85.9904 22.5849 85.5566 22.6459 85.0608 22.6459C84.8439 22.6459 84.658 22.6154 84.4411 22.5849V21.8229C84.534 21.8534 84.689 21.8839 84.8439 21.8839C85.1848 21.8839 85.3087 21.6705 85.3397 21.4877L83.8523 18.5922H84.9988L85.8975 20.5428L86.6102 18.5922Z" fill="#4861A1"/>
<path d="M97.7038 19.3846V21.8229H96.1544C96.4953 21.3048 96.6192 20.7562 96.6192 19.8418V19.3541H97.7038V19.3846ZM98.6644 21.8229V18.5922H95.7206V19.5065C95.7206 20.3599 95.5656 21.1219 95.1008 21.7925H94.698L94.76 23.4688H95.5966V22.5544H98.3545V23.4688H99.1912L99.2532 21.7925H98.6644V21.8229Z" fill="#4861A1"/>
<path d="M107.961 21.1829L108.487 19.6589L109.014 21.1829H107.961ZM108.023 18.5922L106.504 22.5849H107.527L107.775 21.8229H109.262L109.51 22.5849H110.533L108.983 18.5922H108.023Z" fill="#4861A1"/>
<path d="M119.054 19.3846H119.798C120.015 19.3846 120.48 19.3541 120.48 19.9028C120.48 20.299 120.263 20.4514 119.798 20.4514H119.054V19.3846ZM118.094 18.5922V22.5849H119.054V21.2134H119.953C120.449 21.2134 121.502 21.1219 121.502 19.8723C121.502 18.897 120.79 18.5922 119.984 18.5922H118.094Z" fill="#4861A1"/>
<path d="M132.999 21.1828C132.937 21.7924 132.596 22.7068 131.139 22.7068C130.086 22.7068 129.156 22.2496 129.156 20.6647C129.156 18.5617 130.736 18.4702 131.108 18.4702C132.534 18.4702 132.906 19.3541 132.937 19.9332H132.007C131.914 19.2627 131.387 19.2322 131.17 19.2322C130.953 19.2322 130.21 19.2627 130.21 20.6037C130.21 21.3657 130.551 21.8839 131.201 21.8839C131.821 21.8839 132.007 21.4267 132.069 21.1219H132.999V21.1828Z" fill="#4861A1"/>
<path d="M140.466 19.3846V18.5922H143.875V19.3846H142.636V22.5849H141.675V19.3846H140.466Z" fill="#4861A1"/>
<path d="M152.552 19.3846H153.388C153.822 19.3846 153.915 19.598 153.915 19.7808C153.915 19.9332 153.822 20.1771 153.45 20.1771H152.583V19.3846H152.552ZM151.591 18.5922V22.5849H153.512C154.225 22.5849 155.062 22.4325 155.062 21.4572C155.062 20.7257 154.504 20.5123 154.194 20.4209C154.597 20.299 154.876 20.0552 154.876 19.598C154.876 19.1713 154.69 18.5922 153.636 18.5922H151.591L152.552 20.9086H153.419C153.76 20.9086 154.07 21 154.07 21.3658C154.07 21.7315 153.698 21.8229 153.543 21.8229H152.552V20.9086L151.591 18.5922Z" fill="#4861A1"/>
<path d="M165.969 20.2076V20.939H163.986V21.8229H166.31V22.5849H163.026V18.5922H166.248V19.3846H163.986V20.2076H165.969Z" fill="#4861A1"/>
<path d="M175.049 22.5849H174.088V18.5922H175.049V20.1161H176.536V18.5922H177.497V22.5849H176.536V20.8781H175.049V22.5849Z" fill="#4861A1"/>
<path d="M186.545 22.5849H185.615V18.5922H186.545V20.1161H188.032V18.5922H188.993V22.5849H188.032V20.8781H186.545V22.5849Z" fill="#4861A1"/>
<path d="M198.072 20.8171H198.847C199.25 20.8171 199.498 20.939 199.498 21.3048C199.498 21.6705 199.25 21.7925 198.878 21.7925H198.072V20.8171ZM198.072 18.5922H197.112V22.5849H199.064C199.994 22.5849 200.52 22.2192 200.52 21.3353C200.52 20.7257 200.242 20.0247 199.064 20.0247H198.041V18.5922H200.799V22.5849H201.76V18.5922H200.799H198.072Z" fill="#4861A1"/>
<path d="M210.87 21.1829V18.5921H209.91V22.5849H210.87L212.482 19.9637V22.5849H213.442V18.5921H212.482L210.87 21.1829ZM210.529 17.6168C210.56 18.3178 211.366 18.4093 211.676 18.4093C211.862 18.4093 212.761 18.3788 212.822 17.6168H212.172C212.172 17.8302 212.017 18.013 211.676 18.013C211.304 18.013 211.18 17.8302 211.18 17.6168H210.529Z" fill="#4861A1"/>
<path d="M41.0585 25.6939L10.2568 40.1714L10.4118 40.2933C11.8372 41.3296 18.5305 39.9276 27.207 35.8739C35.3877 32.0335 41.3993 27.675 41.2444 25.7853V25.6329L41.0585 25.6939Z" fill="#4861A1"/>
<path d="M25.1929 31.5457C34.1793 27.3091 41.3684 22.7372 41.2754 21.3047V21.1523L41.1205 21.2133L6.84827 37.3062L7.0032 37.4281C8.27369 38.3425 16.1135 35.8127 25.1929 31.5457Z" fill="#4861A1"/>
<path d="M40.8415 16.8549V16.4891L40.6866 16.5501L3.62549 33.9841L3.68746 34.0755C4.21425 35.1727 14.0683 31.241 23.0857 27.0044C32.7538 22.463 40.4077 18.1045 40.8415 16.8549Z" fill="#4861A1"/>
<path d="M39.2304 13.5327C39.2614 13.5022 39.2923 13.4412 39.2923 13.4107V13.3803L39.2304 13.2888L39.1374 13.3498L2.07629 30.7533L2.13827 30.8447C2.16926 30.8752 2.23123 30.8752 2.29321 30.9057C3.71863 31.119 16.2686 25.4499 21.1956 23.1335C26.1226 20.7866 38.5177 14.7518 39.2304 13.5327Z" fill="#4861A1"/>
<path d="M37.464 9.93612C37.495 9.87517 37.464 9.84469 37.309 9.81421C36.7203 10.0885 0.712738 27.0043 0.340887 27.1567L0.247925 27.2177L0.3099 27.3091C0.3099 27.3396 0.371875 27.3396 0.464838 27.3091C0.495825 27.3091 0.588788 27.2787 0.650763 27.2787C2.88187 26.73 17.0742 20.1771 20.049 18.8055C26.4634 15.7576 37.1851 10.6371 37.464 9.93612Z" fill="#4861A1"/>
<path d="M34.799 6.64441C34.0863 6.40057 26.2155 9.05224 17.1981 13.2888C9.04836 17.0987 0.712714 21.9448 0.0619751 22.9811C0.0309875 23.0116 0 23.0726 0 23.0726V23.103L0.0619751 23.1945L35.0779 6.73584L34.799 6.64441Z" fill="#4861A1"/>
<path d="M0.774689 17.1596L29.841 3.50506L29.7481 3.4441L29.5931 3.32219C28.6635 2.98692 22.2181 5.45572 14.5951 9.02175C6.9722 12.6183 0.960614 16.0014 0.619751 16.9158L0.712714 17.1596H0.774689Z" fill="#4861A1"/>
<path d="M3.68752 10.2104L22.0012 1.61536L21.9392 1.52392C21.5054 0.640034 15.8966 2.89548 12.1781 4.63278C8.49059 6.3396 3.19172 9.2351 3.59456 10.119L3.68752 10.2104Z" fill="#4861A1"/>
<path d="M17.5389 41.5732L17.7559 41.6647C20.2349 42.701 25.7816 41.2075 29.717 39.2873C33.8694 37.2452 37.9287 33.862 38.5795 31.8809L38.6415 31.6371L38.3936 31.7285L17.5389 41.5732Z" fill="#4861A1"/>
<path d="M0.681728 17.2206L16.1135 9.96663L13.6965 9.44849C8.89343 11.7039 0.15494 16.1539 0.619753 17.0987L0.681728 17.2206Z" fill="#6DCEF5"/>
<path d="M17.5389 41.5732L17.7559 41.6647C20.2349 42.701 25.7816 41.2075 29.7171 39.2873L30.4298 38.9216V38.8911C30.9566 37.6719 31.3904 36.4223 31.6693 35.1422L31.7312 34.9288L31.5143 35.0203L17.5389 41.5732Z" fill="#6DCEF5"/>
<path d="M32.196 29.8389L32.0411 29.8998L10.2568 40.1407L10.4118 40.2627C11.8372 41.299 18.5305 39.8969 27.207 35.8432C28.8184 35.0812 30.4297 34.2583 31.9481 33.4354L32.0101 33.4049V33.3439C32.165 32.3077 32.258 31.2714 32.258 30.3265L32.196 29.8389Z" fill="#6DCEF5"/>
<path d="M26.1225 15.8795L25.9366 15.6662L25.5957 15.3004L25.5338 15.3309L0.247925 27.2177L0.3099 27.3091C0.3099 27.3396 0.371875 27.3396 0.464838 27.3091C0.526813 27.3091 0.650763 27.2786 0.650763 27.2786C2.88187 26.73 17.0742 20.177 20.049 18.8055L26.1225 15.8795Z" fill="#6DCEF5"/>
<path d="M31.9792 28.1016L32.0412 28.0712L31.6073 25.6633L31.4834 25.7243L6.84827 37.3063L7.0032 37.4282C8.30468 38.3426 16.1135 35.8433 25.1929 31.5458C27.5789 30.4485 29.841 29.2598 31.9792 28.1016Z" fill="#6DCEF5"/>
<path d="M20.5447 11.7344L20.4828 11.7649L17.1981 13.2888C9.04836 17.0987 0.712714 21.9448 0.0619751 22.9811C0.0309875 23.0116 0 23.0725 0 23.0725V23.103L0.0619751 23.1945L22.311 12.7402L20.5447 11.7344Z" fill="#6DCEF5"/>
<path d="M30.7396 23.2249L30.8326 23.1944L30.1198 21.5181L30.0269 21.579L3.62549 33.984L3.68746 34.0754C4.21425 35.1726 14.0683 31.2409 23.0857 27.0043C25.7506 25.7546 28.3226 24.4745 30.7396 23.2249Z" fill="#6DCEF5"/>
<path d="M28.9115 19.3541L28.7256 19.0798L28.2918 18.4093L28.1988 18.4703L2.07629 30.7533L2.13827 30.8447C2.16926 30.8752 2.23123 30.8752 2.29321 30.9057C3.71863 31.119 16.2686 25.4499 21.1956 23.1335L28.9115 19.3541Z" fill="#6DCEF5"/>
</g>
<defs>
<clipPath id="clip0">
<rect width="214" height="42" fill="white"/>
</clipPath>
</defs>
</svg>
